# xmcd
#
# Track frame offsets:
#	150
#	16756
#	30690
#	43843
#	57496
#	69949
#	81314
#	93469
#	107308
#	123298
#	132143
#	143691
#	163133
#	178120
#
# Disc length: 2515 seconds
#
# Revision: 0
# Processed by: cddbd v1.5.1PL0 Copyright (c) Steve Scherf et al.
# Submitted via: audiograbber 1.80
#
DISCID=b609d10e
DTITLE=Flying Burrito Brothers - Wanted
DYEAR=1900
DGENRE=
TTITLE0=She Belongs To Everyone But Me
TTITLE1=If Something Should Come Between Us
TTITLE2=Closer To You
TTITLE3=Another Shade Of Grey
TTITLE4=She's A Friend Of A Friend
TTITLE5=My Abandoned Heart
TTITLE6=Why Must The Ending Always Be So Sad
TTITLE7=Too Much Honky Tonkin'
TTITLE8=Midnight Magic Woman
TTITLE9=You
TTITLE10=Somewhere Tonight
TTITLE11=Louisiana
TTITLE12=Coast To Coast
TTITLE13=Cheating Kind Of Love
EXTD=
EXTT0=
EXTT1=
EXTT2=
EXTT3=
EXTT4=
EXTT5=
EXTT6=
EXTT7=
EXTT8=
EXTT9=
EXTT10=
EXTT11=
EXTT12=
EXTT13=
PLAYORDER=
